<mxfile
  host="Electron" 
  agent="Mozilla/5.0 (Macintosh; Intel Mac OS X 10_15_7) AppleWebKit/537.36 (KHTML, like Gecko) draw.io/25.0.2 Chrome/128.0.6613.186 Electron/32.2.5 Safari/537.36" 
  version="25.0.2"
  >
  <diagram
    name="-"
    >
    <mxGraphModel
      grid="1" 
      gridSize="10" 
      guides="1" 
      tooltips="1" 
      connect="1" 
      arrows="1" 
      fold="1" 
      page="1" 
      pageScale="1" 
      pageWidth="1" 
      pageHeight="1" 
      math="0" 
      shadow="0"
      >
      <root>
        <mxCell
          id="page"
          />
        <mxCell
          id="root" 
          parent="page"
          />
        <mxCell
          style="verticalAlign=top;aspect=fixed;align=center;spacingLeft=5;spacingRight=5;spacingBottom=5;strokeColor=none;" 
          id="shape_" 
          parent="root" 
          value=" " 
          vertex="1"
          >
          <mxGeometry
            as="geometry" 
            width="40" 
            height="48" 
            x="0" 
            y="0"
            />
          </mxCell>
        <mxCell
          style="shape=image;editableCssRules=.*;verticalLabelPosition=bottom;labelBackgroundColor=default;verticalAlign=top;aspect=fixed;imageAspect=0;image=data:image/svg+xml,PHN2ZyB4bWxucz0iaHR0cDovL3d3dy53My5vcmcvMjAwMC9zdmciIHZpZXdCb3g9Ii0wLjUgLTAuNSAyMC4wMTUgMjgiIGhlaWdodD0iMjgiIHdpZHRoPSIyMC4wMTUiPiYjeGE7CSAgPHN0eWxlIHR5cGU9InRleHQvY3NzIj4uc3QwIHsgc3RvcC1jb2xvcjogcmdiKDkxLCAxMTUsIDEzOSk7IH0gLnN0MSB7IHN0b3AtY29sb3I6IHJnYigzNCwgNTMsIDcyKTsgfSA8L3N0eWxlPiYjeGE7CTxkZWZzPiYjeGE7CQk8bGluZWFyR3JhZGllbnQgZ3JhZGllbnRVbml0cz0idXNlclNwYWNlT25Vc2UiIHkyPSIxOC4zMzYiIHgyPSIyMS43MDYiIHkxPSIzLjQ3NCIgeDE9IjEuMzE1IiBpZD0iQSI+JiN4YTsJCQk8c3RvcCBjbGFzcz0ic3QwIi8+JiN4YTsJCQk8c3RvcCBjbGFzcz0ic3QxIiBvZmZzZXQ9IjEiLz4mI3hhOwkJPC9saW5lYXJHcmFkaWVudD4mI3hhOwk8L2RlZnM+JiN4YTsJPHBhdGggZmlsbD0idXJsKCNBKSIgZD0iTTE5LjE3LS4xMTZhMS4zNiAxLjM2IDAgMCAxIC4yNjMuNDU0Yy4wNTkuMTcuMDg3LjM1MS4wOC41MzN2MjUuMjAzYzAgLjM2Ni0uMTIyLjcxOC0uMzQ0Ljk4N2ExLjE0IDEuMTQgMCAwIDEtLjM5Ny4zMzEgMS4wMiAxLjAyIDAgMCAxLS40ODYuMTA3SC43MjZhMS4wMiAxLjAyIDAgMCAxLS40ODYtLjEwNyAxLjE0IDEuMTQgMCAwIDEtLjM5Ny0uMzMxYy0uMjIxLS4yNjktLjM0NC0uNjIyLS4zNDQtLjk4N1Y5LjI1NmMwLS4zNjYuMTE1LS42NzcuMzQ0LS45MzNMNy4zNDktLjExNmMuMjQxLS4yNDcuNTU2LS4zODQuODg0LS4zODRoMTAuMDU2YTEuMTMgMS4xMyAwIDAgMSAuODgyLjM4NHptLTIuMTU4IDIuNDExSDguNzcxbC0uNTM4LjU0OXYzLjYxNWEyLjg1IDIuODUgMCAwIDEtLjczOCAxLjk3MyAyLjQyIDIuNDIgMCAwIDEtLjgwNi42MTUgMi4xOSAyLjE5IDAgMCAxLS45NTguMjA3SDIuNDlsLS40OS42MDF2MTQuODUxaDE1LjAxVjIuMjkzek00LjUwMyAxNC44OThjMC0uOTUuNDA4LTEuNDI1IDEuMjI4LTEuNDI1aDcuNTUzYy44MTggMCAxLjIyNi40NzMgMS4yMjYgMS40MjUgMCAuOTEyLS40MDggMS4zNjgtMS4yMjQgMS4zNjhINS43MjljLS44MTggMC0xLjIyNi0uNDU2LTEuMjI2LTEuMzY4em04Ljc4MSA0LjE2MmMuMzYxIDAgLjY1NS4xNDcuODg0LjQzOC4yMjIuMjY5LjM0NC42MjIuMzQ0Ljk4N3MtLjEyMy43MTgtLjM0NC45ODdhMS4xOSAxLjE5IDAgMCAxLS40MDYuMjkzYy0uMTUyLjA2Ni0uMzE0LjA5Ni0uNDc3LjA4OUg1LjczYy0uMTYzLjAwNy0uMzI1LS4wMjQtLjQ3Ny0uMDlhMS4xOSAxLjE5IDAgMCAxLS40MDYtLjI5NGMtLjIyMS0uMjY5LS4zNDMtLjYyLS4zNDMtLjk4NXMuMTIyLS43MTYuMzQzLS45ODVjLjEwOS0uMTQyLjI0NC0uMjU2LjM5Ny0uMzMxYTEuMDIgMS4wMiAwIDAgMSAuNDg2LS4xMDd6Ii8+JiN4YTs8L3N2Zz4;strokeColor=none;" 
          id="document_non_sap_" 
          parent="shape_" 
          value=" " 
          vertex="1"
          >
          <mxGeometry
            width="20" 
            height="28" 
            as="geometry" 
            x="10" 
            y="10"
            />
          </mxCell>
        </root>
      </mxGraphModel>
    </diagram>
  </mxfile>